<svg xmlns="http://www.w3.org/2000/svg" id="prefix__구성_요소_17_1" width="159" height="161" data-name="구성 요소 17 – 1" viewBox="0 0 159 161">
    <defs>
        <style>
            .prefix__cls-2{fill:#2a2a2a}.prefix__cls-3{fill:#008ee5}
        </style>
    </defs>
    <rect id="prefix__사각형_68" width="123.611" height="123.611" fill="#fff" data-name="사각형 68" rx="15" transform="translate(17.333 19.331)"/>
    <g id="prefix__그룹_38" data-name="그룹 38" transform="translate(34.94 36.937)">
        <path id="prefix__패스_73" d="M235.643 1898.686a22.073 22.073 0 0 1 14.952 14.628c1.97-1.571 4.38-3.526 7.039-5.753l-16.32-16.32c-2.2 2.816-4.13 5.366-5.672 7.445z" class="prefix__cls-2" data-name="패스 73" transform="translate(-205.613 -1853.735)"/>
        <path id="prefix__패스_74" d="M295.665 1803.008c-12.534 1.318-31.155 23.587-39.036 33.362l17.036 17.037c9.591-8.271 31.732-28.06 32.4-40.633a9.094 9.094 0 0 0-10.4-9.766z" class="prefix__cls-2" data-name="패스 74" transform="translate(-217.685 -1802.946)"/>
        <path id="prefix__패스_75" d="M174.006 1926.168c-7.546 9.433-1.229 17.851-8.347 25.356a2.591 2.591 0 0 0 .86 4.163c11.789 5.047 26.634 1.77 33.514-5.485 6.469-6.821 8.47-18.566.622-26.415-7.564-7.565-20.255-5.615-26.649 2.381z" class="prefix__cls-2" data-name="패스 75" transform="translate(-164.948 -1869.72)"/>
    </g>
    <rect id="prefix__사각형_69" width="37" height="16" class="prefix__cls-3" data-name="사각형 69" rx="8" transform="rotate(-180 18.5 44.5)"/>
    <rect id="prefix__사각형_70" width="37" height="16" class="prefix__cls-3" data-name="사각형 70" rx="8" transform="rotate(-180 79.5 44.5)"/>
    <rect id="prefix__사각형_71" width="39" height="17" class="prefix__cls-3" data-name="사각형 71" rx="8.5" transform="rotate(90 44 44)"/>
    <rect id="prefix__사각형_72" width="39" height="17" class="prefix__cls-3" data-name="사각형 72" rx="8.5" transform="rotate(90 -17 105)"/>
</svg>
