<svg xmlns="http://www.w3.org/2000/svg" id="prefix__구성_요소_34_1" width="132.836" height="131.961" data-name="구성 요소 34 – 1" viewBox="0 0 132.836 131.961">
    <defs>
        <style>
            .prefix__cls-3{fill:#2a2a2a}
        </style>
    </defs>
    <g id="prefix__구성_요소_18_2" data-name="구성 요소 18 – 2">
        <rect id="prefix__사각형_73" width="92.92" height="92.92" fill="#008ee5" data-name="사각형 73" rx="13" transform="translate(39.916)"/>
        <rect id="prefix__사각형_74" width="118.077" height="118.077" fill="#fff" data-name="사각형 74" rx="13" transform="translate(0 13.884)"/>
    </g>
    <g id="prefix__그룹_93" data-name="그룹 93" transform="translate(19.584 35.595)">
        <path id="prefix__패스_73" d="M235.643 1898.21a20.66 20.66 0 0 1 14 13.692c1.844-1.471 4.1-3.3 6.589-5.385l-15.275-15.276c-2.06 2.636-3.865 5.023-5.309 6.969z" class="prefix__cls-3" data-name="패스 73" transform="translate(-207.535 -1856.136)"/>
        <path id="prefix__패스_74" d="M293.166 1803c-11.732 1.233-29.161 22.077-36.537 31.227l15.945 15.946c8.977-7.741 29.7-26.264 30.328-38.032a8.512 8.512 0 0 0-9.736-9.141z" class="prefix__cls-3" data-name="패스 74" transform="translate(-220.178 -1802.946)"/>
        <path id="prefix__패스_75" d="M173.426 1925.711c-7.063 8.829-1.15 16.708-7.813 23.733a2.425 2.425 0 0 0 .8 3.9c11.034 4.724 24.929 1.657 31.369-5.134 6.055-6.384 7.928-17.378.582-24.724-7.075-7.086-18.951-5.259-24.938 2.225z" class="prefix__cls-3" data-name="패스 75" transform="translate(-164.948 -1872.876)"/>
    </g>
</svg>
