<svg xmlns="http://www.w3.org/2000/svg" id="prefix__구성_요소_19_1" width="138" height="135" data-name="구성 요소 19 – 1" viewBox="0 0 138 135">
    <rect id="prefix__사각형_75" width="97" height="95" fill="#008ee5" data-name="사각형 75" rx="14" transform="translate(41)"/>
    <rect id="prefix__사각형_76" width="121" height="119" fill="#fff" data-name="사각형 76" rx="15" transform="translate(0 16)"/>
    <g id="prefix__그룹_51" data-name="그룹 51" transform="translate(23.874 45.595)">
        <g id="prefix__그룹_50" data-name="그룹 50">
            <path id="prefix__패스_79" fill="#2a2a2a" d="M1071.791 1354.549c7.037-8.784 9.07-17.65 5.256-23.377-6.1-9.161-24.313-7.628-41.456 3.491-11.311 7.335-19.458 17.3-21.259 26.018a13.2 13.2 0 0 0 1.555 10.186 11.954 11.954 0 0 0 4.51 3.963 5.2 5.2 0 0 0-.034 3.279c1.027 3.112 4.9 4.641 8.635 3.408a4.761 4.761 0 0 1 6.005 3.024 2.379 2.379 0 0 1-1.512 3 1.189 1.189 0 0 0 .746 2.258 4.76 4.76 0 0 0 3.024-6.005 7.127 7.127 0 0 0-4.72-4.587 6.5 6.5 0 0 0 1.441-2.642 46.035 46.035 0 0 0 8.589-1.992 64.784 64.784 0 0 0 14.774-7.2c.431-.28.839-.572 1.258-.858l4.688 11.056a1.188 1.188 0 0 0 1.166.723 1.2 1.2 0 0 0 .3-.058 1.188 1.188 0 0 0 .771-.8l3.63-12.637 12.858-2.745a1.188 1.188 0 0 0 .286-2.224zm-20.322-10.218a1.189 1.189 0 0 0-1.629 1.526l7.822 18.443c-.528.366-1.064.728-1.61 1.082-7.5 4.866-15.314 7.835-22.011 8.763a4.741 4.741 0 0 0-.133-.507c-1.027-3.111-4.9-4.641-8.635-3.408a8.037 8.037 0 0 0-3.724 2.525 9.667 9.667 0 0 1-3.683-3.206c-1.489-2.236-1.9-5.057-1.206-8.388 1.678-8.113 9.428-17.5 20.225-24.5a62.274 62.274 0 0 1 14.207-6.911c10.778-3.558 20.281-2.808 23.979 2.742 3.272 4.914 1.183 12.9-5.443 20.971z" data-name="패스 79" transform="translate(-1013.964 -1325.197)"/>
        </g>
    </g>
</svg>
