<svg xmlns="http://www.w3.org/2000/svg" width="147.91" height="147.91" viewBox="0 0 147.91 147.91">
    <defs>
        <style>
            .prefix__cls-1{fill:#198EE5}
        </style>
    </defs>
    <g id="prefix___3026350" data-name="3026350">
        <path id="prefix__패스_97" d="M190.491 164.213v-8.667h8.437a39.362 39.362 0 0 0-34.715-34.715v8.437h-8.667v-8.437a39.361 39.361 0 0 0-34.715 34.715h8.437v8.667h-8.437a39.361 39.361 0 0 0 34.715 34.715v-8.437h8.667v8.437a39.362 39.362 0 0 0 34.715-34.715zm-30.611 17.622a21.955 21.955 0 1 1 21.955-21.955 21.98 21.98 0 0 1-21.955 21.955z" class="prefix__cls-1" data-name="패스 97" transform="translate(-85.924 -85.925)"/>
        <circle id="prefix__타원_18" cx="13" cy="13" r="13" class="prefix__cls-1" data-name="타원 18" transform="translate(60.955 60.955)"/>
        <path id="prefix__패스_98" d="M126.249 21.661A73.955 73.955 0 0 0 21.661 126.249 73.955 73.955 0 0 0 126.249 21.661zM78.288 130.587h-8.666v-8.875A48.034 48.034 0 0 1 26.2 78.288h-8.877v-8.666H26.2A48.034 48.034 0 0 1 69.622 26.2v-8.877h8.667V26.2a48.034 48.034 0 0 1 43.424 43.424h8.875v8.667h-8.875a48.034 48.034 0 0 1-43.424 43.424z" class="prefix__cls-1" data-name="패스 98"/>
    </g>
</svg>
