<svg xmlns="http://www.w3.org/2000/svg" width="98.255" height="82.519" viewBox="0 0 98.255 82.519">
    <defs>
        <style>
            .prefix__cls-1{fill:#fff}
        </style>
    </defs>
    <g id="prefix___2965705" data-name="2965705" transform="translate(0 -41)">
        <path id="prefix__패스_64" d="M87.7 52.514H68.474L66.6 46.9a8.625 8.625 0 0 0-8.189-5.9H39.844a8.625 8.625 0 0 0-8.193 5.9l-1.87 5.609h-4.642v-4.8A6.724 6.724 0 0 0 18.423 41h-3.838a6.724 6.724 0 0 0-6.717 6.717v5.145A10.573 10.573 0 0 0 0 63.069v49.9a10.567 10.567 0 0 0 10.555 10.555H87.7a10.567 10.567 0 0 0 10.555-10.555v-49.9A10.567 10.567 0 0 0 87.7 52.514zm-74.075-4.8a.961.961 0 0 1 .96-.96h3.838a.961.961 0 0 1 .96.96v4.8h-5.758zm78.875 65.25a4.8 4.8 0 0 1-4.8 4.8H10.555a4.8 4.8 0 0 1-4.8-4.8v-49.9a4.8 4.8 0 0 1 4.8-4.8h21.3a2.878 2.878 0 0 0 2.732-1.964l2.526-7.578a2.875 2.875 0 0 1 2.731-1.968h18.567a2.875 2.875 0 0 1 2.731 1.968l2.526 7.578a2.879 2.879 0 0 0 2.732 1.971h21.3a4.8 4.8 0 0 1 4.8 4.8z" class="prefix__cls-1" data-name="패스 64"/>
        <circle id="prefix__타원_7" cx="3" cy="3" r="3" class="prefix__cls-1" data-name="타원 7" transform="translate(80.127 64.259)"/>
        <path id="prefix__패스_65" d="M69.636 161h-5.757a2.879 2.879 0 1 0 0 5.757h5.757a2.879 2.879 0 0 0 0-5.757z" class="prefix__cls-1" data-name="패스 65" transform="translate(-49.294 -96.971)"/>
        <g id="prefix__그룹_34" data-name="그룹 34" transform="translate(23.22 60.19)">
            <path id="prefix__패스_66" d="M146.907 192.814a25.907 25.907 0 1 1 25.907-25.907 25.936 25.936 0 0 1-25.907 25.907zm0-46.057a20.15 20.15 0 1 0 20.15 20.15 20.173 20.173 0 0 0-20.15-20.15z" class="prefix__cls-1" data-name="패스 66" transform="translate(-121 -141)"/>
        </g>
        <g id="prefix__그룹_35" data-name="그룹 35" transform="translate(34.735 71.705)">
            <path id="prefix__패스_67" d="M195.393 229.786a14.393 14.393 0 1 1 14.393-14.393 14.409 14.409 0 0 1-14.393 14.393zm0-23.029a8.636 8.636 0 1 0 8.636 8.636 8.646 8.646 0 0 0-8.636-8.636z" class="prefix__cls-1" data-name="패스 67" transform="translate(-181 -201)"/>
        </g>
    </g>
</svg>
