<svg xmlns="http://www.w3.org/2000/svg" id="prefix__구성_요소_6_1" width="110" height="87.833" data-name="구성 요소 6 – 1" viewBox="0 0 110 87.833">
    <defs>
        <style>
            .prefix__cls-2{fill:none}.prefix__cls-6{fill:#fff}.prefix__cls-4,.prefix__cls-6{stroke:none}
        </style>
    </defs>
    <g id="prefix__사각형_63" fill="none" stroke="#fff" stroke-width="6px" data-name="사각형 63" transform="translate(0 16.833)">
        <rect width="110" height="71" class="prefix__cls-4" rx="18"/>
        <rect width="104" height="65" x="3" y="3" rx="15"/>
    </g>
    <g id="prefix__빼기_2" class="prefix__cls-2" data-name="빼기 2">
        <path d="M78.765 11.058H0A11.187 11.187 0 0 1 11.185 0H67.58a11.187 11.187 0 0 1 11.185 11.057z" class="prefix__cls-4" transform="translate(15.399)"/>
        <path d="M78.764 14.058v-3 3m-3.615-6c-.412-.996-1.023-1.91-1.812-2.691C71.795 3.841 69.75 3 67.58 3H11.185c-2.17 0-4.215.84-5.758 2.367-.789.78-1.4 1.695-1.812 2.691H75.15m3.616 3zm0 0H0c.033-2.962 1.212-5.74 3.318-7.824C5.425 1.15 8.22 0 11.185 0H67.58c2.965 0 5.76 1.149 7.867 3.234 2.106 2.084 3.285 4.863 3.318 7.823v.001z" class="prefix__cls-6" transform="translate(15.399)"/>
    </g>
    <g id="prefix__빼기_1" class="prefix__cls-2" data-name="빼기 1">
        <path d="M94.171 19.918A27.354 27.354 0 0 0 76 13.029H19.344a27.363 27.363 0 0 0-18.166 6.887A14.243 14.243 0 0 1 14.24 0h66.867a14.248 14.248 0 0 1 13.064 19.917z" class="prefix__cls-4" transform="translate(7.372 7.501)"/>
        <path d="M91.273 12.988c-.274-2.261-1.289-4.353-2.925-5.989C86.414 5.065 83.843 4 81.108 4H14.24C11.505 4 8.933 5.065 7 7c-1.636 1.635-2.65 3.727-2.925 5.988 4.635-2.58 9.88-3.959 15.269-3.959h56.66c5.389 0 10.635 1.38 15.269 3.96m2.898 6.93l-.001-.002c-5.01-4.441-11.461-6.888-18.166-6.888h-56.66c-6.704 0-13.155 2.446-18.166 6.887C.396 18.122 0 16.213 0 14.241c0-3.804 1.481-7.38 4.17-10.07C6.86 1.481 10.437 0 14.24 0h66.867c3.804 0 7.38 1.481 10.07 4.171 2.69 2.69 4.17 6.266 4.17 10.07 0 1.972-.395 3.882-1.176 5.676v.001z" class="prefix__cls-6" transform="translate(7.372 7.501)"/>
    </g>
    <path id="prefix__다각형_3" fill="#fff" d="M12.488 10.148a7 7 0 0 1 12.041 0l6.216 10.478A7 7 0 0 1 24.724 31.2H12.292a7 7 0 0 1-6.02-10.571z" data-name="다각형 3" transform="rotate(90 19.889 53.775)"/>
</svg>
