<svg xmlns="http://www.w3.org/2000/svg" width="70.112" height="61.211" viewBox="0 0 70.112 61.211">
    <g id="prefix__구성_요소_21_1" data-name="구성 요소 21 – 1">
        <g id="prefix__그룹_67" data-name="그룹 67">
            <path id="prefix__패스_83" fill="#8e8e8e" d="M92.557-328.233a30.651 30.651 0 0 1 30.012 24.633l5.818-7.272 3.677 2.943-9.417 11.771a2.357 2.357 0 0 1-1.839.883 2.363 2.363 0 0 1-1.052-.247l-14.126-7.063 2.107-4.212 10.38 5.189a25.916 25.916 0 0 0-25.56-21.918 25.928 25.928 0 0 0-25.9 25.9 25.927 25.927 0 0 0 25.9 25.9v4.708a30.641 30.641 0 0 1-30.605-30.605 30.641 30.641 0 0 1 30.605-30.61z" data-name="패스 83" transform="translate(-61.952 328.233)"/>
        </g>
    </g>
</svg>
