<svg xmlns="http://www.w3.org/2000/svg" width="123.416" height="99.751" viewBox="0 0 123.416 99.751">
    <defs>
        <style>
            .prefix__cls-2{fill:#fff}
        </style>
    </defs>
    <g id="prefix__구성_요소_7_1" data-name="구성 요소 7 – 1" transform="translate(2.5 2.5)">
        <path id="prefix__패스_105" fill="#2a2a2a" stroke="#fff" stroke-width="5px" d="M20.449 0h77.518a20.449 20.449 0 0 1 20.449 20.449V74.3a20.449 20.449 0 0 1-20.449 20.451H20.449A20.449 20.449 0 0 1 0 74.3V20.449A20.449 20.449 0 0 1 20.449 0z" data-name="패스 105"/>
        <g id="prefix__그룹_86" data-name="그룹 86" transform="translate(26.717 14.885)">
            <path id="prefix__패스_99" d="M-68.155-1648.157a1.354 1.354 0 0 1-1.354-1.354 1.354 1.354 0 0 1 1.354-1.354 27.106 27.106 0 0 0 27.075-27.075 1.354 1.354 0 0 1 1.354-1.354 1.354 1.354 0 0 1 1.354 1.354 29.818 29.818 0 0 1-29.783 29.783z" class="prefix__cls-2" data-name="패스 99" transform="translate(100.646 1707.723)"/>
            <path id="prefix__패스_100" d="M-150.532-1862.886a1.359 1.359 0 0 1-1.281-.91 27.047 27.047 0 0 0-25.551-18.179 26.39 26.39 0 0 0-16.7 5.846 1.357 1.357 0 0 1-1.9-.206 1.354 1.354 0 0 1 .208-1.9 29.057 29.057 0 0 1 18.392-6.444 29.764 29.764 0 0 1 28.113 20 1.357 1.357 0 0 1-.837 1.725 1.413 1.413 0 0 1-.444.068z" class="prefix__cls-2" data-name="패스 100" transform="translate(209.855 1884.682)"/>
            <path id="prefix__패스_101" d="M-254.59-1748.9a1.378 1.378 0 0 1-.449-.076 29.75 29.75 0 0 1-19.857-28.056 29.28 29.28 0 0 1 5.166-16.687 1.353 1.353 0 0 1 1.882-.349 1.351 1.351 0 0 1 .347 1.882 26.618 26.618 0 0 0-4.687 15.154 27.034 27.034 0 0 0 18.049 25.5 1.354 1.354 0 0 1 .828 1.725 1.353 1.353 0 0 1-1.278.907z" class="prefix__cls-2" data-name="패스 101" transform="translate(277.604 1806.815)"/>
            <path id="prefix__패스_102" d="M-72.525-1499.478a1.36 1.36 0 0 1-.958-.4l-5.415-5.415a1.355 1.355 0 0 1 0-1.914l5.415-5.415a1.354 1.354 0 0 1 1.914 0 1.355 1.355 0 0 1 0 1.914l-4.457 4.457 4.457 4.457a1.355 1.355 0 0 1 0 1.914 1.34 1.34 0 0 1-.956.402z" class="prefix__cls-2" data-name="패스 102" transform="translate(109.077 1564.459)"/>
            <path id="prefix__패스_103" d="M-283.156-1793.849a1.355 1.355 0 0 1-1.308-1l-1.752-6.539-6.539 1.752a1.363 1.363 0 0 1-1.657-.958 1.354 1.354 0 0 1 .958-1.657l7.846-2.1a1.362 1.362 0 0 1 1.657.956l2.1 7.844a1.354 1.354 0 0 1-.956 1.66 1.451 1.451 0 0 1-.352.046z" class="prefix__cls-2" data-name="패스 103" transform="translate(294.457 1815.51)"/>
            <path id="prefix__패스_104" d="M83.667-1777.143a1.337 1.337 0 0 1-.677-.182l-7.034-4.061a1.353 1.353 0 0 1-.5-1.849 1.351 1.351 0 0 1 1.849-.5l5.862 3.384 3.384-5.862a1.352 1.352 0 0 1 1.849-.5 1.354 1.354 0 0 1 .5 1.849l-4.061 7.034a1.357 1.357 0 0 1-1.172.677z" class="prefix__cls-2" data-name="패스 104" transform="translate(-24.101 1800.423)"/>
        </g>
    </g>
</svg>
