<svg xmlns="http://www.w3.org/2000/svg" id="prefix__구성_요소_1_1" width="70" height="71" data-name="구성 요소 1 – 1" viewBox="0 0 70 71">
    <defs>
        <style>
            .prefix__cls-2{fill:#2b2b2b}
        </style>
    </defs>
    <ellipse id="prefix__타원_3" cx="35" cy="35.5" fill="#fff" data-name="타원 3" rx="35" ry="35.5"/>
    <g id="prefix___2919671" data-name="2919671" transform="translate(14.32 15.179)">
        <path id="prefix__패스_8" d="M130.794 141.588A10.794 10.794 0 1 0 120 130.794a10.806 10.806 0 0 0 10.794 10.794zm0-15.556a4.762 4.762 0 1 1-4.762 4.762 4.767 4.767 0 0 1 4.762-4.762z" class="prefix__cls-2" data-name="패스 8" transform="translate(-110.712 -110.476)"/>
        <path id="prefix__패스_9" d="M40.991 20.318c0-.389-.013-.782-.038-1.174l2.183-2-.126-.654a20.5 20.5 0 0 0-1.562-4.808l-.282-.6-2.94-.333a18.069 18.069 0 0 0-1.381-1.9l.592-2.9-.486-.455a20.5 20.5 0 0 0-4.09-2.972l-.584-.322L29.7 3.656a17.866 17.866 0 0 0-2.238-.727L26.243.238l-.661-.082a20.5 20.5 0 0 0-5.055 0l-.661.082-1.225 2.692a17.884 17.884 0 0 0-2.238.727L13.832 2.2l-.583.322a20.5 20.5 0 0 0-4.09 2.972l-.486.455.592 2.9a18.034 18.034 0 0 0-1.381 1.9l-2.94.333-.282.6a20.5 20.5 0 0 0-1.562 4.81l-.126.654 2.183 2c-.025.392-.038.785-.038 1.174s.013.782.038 1.174l-2.183 2 .126.654a20.5 20.5 0 0 0 1.562 4.808l.282.6 2.94.333a18.045 18.045 0 0 0 1.381 1.9l-.592 2.9.486.455a20.5 20.5 0 0 0 4.09 2.972l.583.322L16.4 36.98a17.875 17.875 0 0 0 2.238.727l1.227 2.693.661.082a20.49 20.49 0 0 0 5.055 0l.661-.082 1.224-2.691a17.876 17.876 0 0 0 2.234-.729l2.572 1.457.583-.322a20.5 20.5 0 0 0 4.09-2.972l.486-.455-.592-2.9a18.058 18.058 0 0 0 1.381-1.9l2.94-.333.282-.6a20.507 20.507 0 0 0 1.562-4.808l.126-.654-2.183-2c.025-.392.038-.785.038-1.174zm-31.112 0a13.175 13.175 0 1 1 13.175 13.175A13.19 13.19 0 0 1 9.879 20.318z" class="prefix__cls-2" data-name="패스 9" transform="translate(-2.972)"/>
    </g>
</svg>
