<svg xmlns="http://www.w3.org/2000/svg" id="prefix__video_icon" width="172.307" height="127.098" viewBox="0 0 172.307 127.098">
    <defs>
        <style>
            .prefix__cls-1{fill:#fff}
        </style>
    </defs>
    <g id="prefix___1077046" data-name="1077046">
        <path id="prefix__패스_5" d="M233.746 125.7l-33.652-18.41a6.181 6.181 0 0 0-9.148 5.423v36.51a6.17 6.17 0 0 0 9.109 5.443l33.653-18.1a6.181 6.181 0 0 0 .038-10.867zm-33.874 18.93v-27.287l25.151 13.757zm0 0" class="prefix__cls-1" data-name="패스 5" transform="translate(-134.138 -74.832)"/>
        <path id="prefix__패스_6" d="M151.2 27.23l-.007-.07c-.129-1.226-1.413-12.132-6.715-17.678a24.786 24.786 0 0 0-16.416-7.7c-.277-.031-.53-.06-.757-.091l-.266-.028C106.9.2 76.493 0 76.188 0h-.053c-.3 0-30.716.2-51.035 1.665l-.268.028c-.216.029-.454.056-.714.086A24.162 24.162 0 0 0 7.8 9.715C2.747 15.2 1.288 25.875 1.138 27.074l-.017.156C1.075 27.74 0 39.886 0 52.079v11.4C0 75.67 1.075 87.816 1.12 88.327l.008.077c.129 1.206 1.412 11.912 6.689 17.461 5.762 6.306 13.047 7.14 16.966 7.589.619.071 1.153.131 1.517.2l.352.049c11.627 1.106 48.082 1.651 49.628 1.673h.093c.3 0 30.715-.2 50.853-1.665l.266-.028c.255-.034.54-.064.854-.1a23.6 23.6 0 0 0 16.18-7.741c5.049-5.489 6.51-16.161 6.659-17.359l.017-.156c.045-.511 1.121-12.656 1.121-24.849v-11.4c0-12.192-1.075-24.337-1.123-24.848zm-7.8 36.247c0 11.285-.985 22.908-1.078 23.975-.379 2.939-1.919 9.691-4.379 12.365-3.793 4.173-7.69 4.587-10.535 4.888-.344.036-.662.071-.951.107-19.477 1.409-48.741 1.625-50.089 1.633-1.512-.022-37.434-.572-48.706-1.619-.578-.094-1.2-.166-1.859-.241-3.336-.382-7.9-.905-11.416-4.768l-.083-.088c-2.417-2.518-3.913-8.832-4.293-12.242-.071-.807-1.082-12.566-1.082-24.01v-11.4C8.926 40.806 9.91 29.2 10 28.107c.452-3.462 2.021-9.8 4.379-12.369 3.909-4.3 8.032-4.776 10.758-5.091.26-.03.5-.058.727-.087C45.63 9.145 75.1 8.934 76.162 8.926c1.058.007 30.521.218 50.107 1.634.241.03.5.06.786.093 2.8.32 7.043.8 10.932 4.952l.036.038c2.417 2.518 3.913 8.943 4.293 12.421.067.761 1.082 12.546 1.082 24.014zm0 0" class="prefix__cls-1" data-name="패스 6"/>
    </g>
    <g id="prefix___892692" data-name="892692" transform="translate(104.176 58.967)">
        <path id="prefix__패스_3" fill="#198ee5" d="M34.066 0a34.066 34.066 0 1 0 34.065 34.066A34.065 34.065 0 0 0 34.066 0z" data-name="패스 3"/>
        <path id="prefix__패스_4" fill="#fafafa" d="M115.027 74.151a4.443 4.443 0 0 0-6.283 0L92.333 90.579a6.718 6.718 0 0 0 0 9.5 6.875 6.875 0 0 0 9.5 0l2.666-2.666v17.16a7.406 7.406 0 1 0 14.811 0v-17.16l2.666 2.666a6.875 6.875 0 0 0 9.5 0 6.718 6.718 0 0 0 0-9.5z" data-name="패스 4" transform="translate(-77.818 -62.734)"/>
    </g>
    <path id="prefix__다각형_1" d="M19.689 0l19.69 33.386H0z" class="prefix__cls-1" data-name="다각형 1" transform="rotate(90 29.453 67.27)"/>
</svg>
